<?xml version="1.0" encoding="UTF-8" standalone="no"?>
<!-- Created with Inkscape (http://www.inkscape.org/) -->

<svg
   version="1.1"
   id="svg1"
   width="880"
   height="880"
   viewBox="0 0 880 880"
   sodipodi:docname="black-gloves.svg"
   inkscape:version="1.3.2 (091e20e, 2023-11-25, custom)"
   xmlns:inkscape="http://www.inkscape.org/namespaces/inkscape"
   xmlns:sodipodi="http://sodipodi.sourceforge.net/DTD/sodipodi-0.dtd"
   xmlns="http://www.w3.org/2000/svg"
   xmlns:svg="http://www.w3.org/2000/svg">
  <defs
     id="defs1">
    <clipPath
       clipPathUnits="userSpaceOnUse"
       id="clipPath3">
      <path
         d="M 0,660 H 660 V 0 H 0 Z"
         transform="translate(-220.98441,-141.95121)"
         id="path3" />
    </clipPath>
    <clipPath
       clipPathUnits="userSpaceOnUse"
       id="clipPath5">
      <path
         d="M 0,660 H 660 V 0 H 0 Z"
         transform="translate(-313.83691,-120.90231)"
         id="path5" />
    </clipPath>
    <clipPath
       clipPathUnits="userSpaceOnUse"
       id="clipPath7">
      <path
         d="M 0,660 H 660 V 0 H 0 Z"
         transform="translate(-313.83691,-120.90231)"
         id="path7" />
    </clipPath>
    <clipPath
       clipPathUnits="userSpaceOnUse"
       id="clipPath9">
      <path
         d="M 0,660 H 660 V 0 H 0 Z"
         transform="translate(-544.73441,-338.45171)"
         id="path9" />
    </clipPath>
    <clipPath
       clipPathUnits="userSpaceOnUse"
       id="clipPath11">
      <path
         d="M 0,660 H 660 V 0 H 0 Z"
         transform="translate(-388.00291,-157.8906)"
         id="path11" />
    </clipPath>
    <clipPath
       clipPathUnits="userSpaceOnUse"
       id="clipPath13">
      <path
         d="M 0,660 H 660 V 0 H 0 Z"
         transform="translate(-384.87011,-388.69871)"
         id="path13" />
    </clipPath>
    <clipPath
       clipPathUnits="userSpaceOnUse"
       id="clipPath15">
      <path
         d="M 0,660 H 660 V 0 H 0 Z"
         transform="translate(-275.3833,-350.97361)"
         id="path15" />
    </clipPath>
    <clipPath
       clipPathUnits="userSpaceOnUse"
       id="clipPath17">
      <path
         d="M 0,660 H 660 V 0 H 0 Z"
         transform="translate(-517.83502,-478.96241)"
         id="path17" />
    </clipPath>
    <clipPath
       clipPathUnits="userSpaceOnUse"
       id="clipPath19">
      <path
         d="M 0,660 H 660 V 0 H 0 Z"
         transform="translate(-532.09771,-451.89751)"
         id="path19" />
    </clipPath>
    <clipPath
       clipPathUnits="userSpaceOnUse"
       id="clipPath21">
      <path
         d="M 0,660 H 660 V 0 H 0 Z"
         transform="translate(-399.84961,-165.75201)"
         id="path21" />
    </clipPath>
    <clipPath
       clipPathUnits="userSpaceOnUse"
       id="clipPath23">
      <path
         d="M 0,660 H 660 V 0 H 0 Z"
         transform="translate(-410.25981,-195.9883)"
         id="path23" />
    </clipPath>
    <clipPath
       clipPathUnits="userSpaceOnUse"
       id="clipPath25">
      <path
         d="M 0,660 H 660 V 0 H 0 Z"
         transform="translate(-523.54792,-378.56051)"
         id="path25" />
    </clipPath>
  </defs>
  <sodipodi:namedview
     id="namedview1"
     pagecolor="#ffffff"
     bordercolor="#000000"
     borderopacity="0.25"
     inkscape:showpageshadow="2"
     inkscape:pageopacity="0.0"
     inkscape:pagecheckerboard="0"
     inkscape:deskcolor="#d1d1d1"
     inkscape:zoom="0.69318182"
     inkscape:cx="439.27869"
     inkscape:cy="440"
     inkscape:window-width="1440"
     inkscape:window-height="830"
     inkscape:window-x="-6"
     inkscape:window-y="-6"
     inkscape:window-maximized="1"
     inkscape:current-layer="g1">
    <inkscape:page
       x="0"
       y="0"
       inkscape:label="1"
       id="page1"
       width="880"
       height="880"
       margin="101.35226 96.648003 43.071999 100.64893"
       bleed="0" />
  </sodipodi:namedview>
  <g
     id="g1"
     inkscape:groupmode="layer"
     inkscape:label="1">
    <g
       id="group-MC0">
      <path
         id="path2"
         d="M 0,0 C 0.339,23.472 1.714,46.301 6.115,67.249 2.766,80.475 -0.58,93.7 -3.927,106.926 c -17.896,17.012 -33.559,36.153 -46.855,57.555 -10.189,9.811 -20.464,18.474 -30.973,26.015 -0.605,-0.724 -1.241,-1.428 -1.909,-2.114 -10.969,9.226 -22.349,16.24 -34.305,20.174 -0.035,1.014 -0.043,2.017 -0.021,3.014 -7.81,3.531 -15.811,6.531 -24.054,9.006 -5.593,8.778 -4.017,16.124 2.027,21.653 35.274,-0.609 49.432,-4.561 76.861,-18.814 10.271,2.727 18.23,6.848 23.671,12.485 -7.207,72.383 -10.931,145.378 -10.234,213.291 5.462,3.859 12.516,4.389 18.804,0.702 1.394,-13.321 3.181,-26.599 5.315,-39.837 0.618,0.027 1.234,0.047 1.854,0.065 1.687,-8.386 3.373,-16.773 5.06,-25.16 -0.796,-0.139 -1.588,-0.269 -2.378,-0.389 3.569,-18.372 7.757,-36.673 12.446,-54.918 1.915,-0.053 3.831,-0.107 5.746,-0.162 3.714,49.081 6.353,98.708 2.35,151.703 7.163,5.516 14.414,5.671 21.768,2.314 4.623,-22.611 8.167,-45.013 10.948,-67.269 0.793,0.033 1.588,0.06 2.385,0.08 1.423,-8.907 2.845,-17.814 4.268,-26.721 -1.207,-0.211 -2.409,-0.399 -3.6,-0.568 1.903,-19.065 3.342,-38.039 4.516,-56.963 2.36,-0.156 4.723,-0.312 7.083,-0.469 4.868,41.012 9.724,82.028 6.459,126.224 6.401,4.882 13.142,5.128 20.253,-0.661 4.211,-18.203 7.169,-35.913 9.349,-53.32 0.63,-0.066 1.26,-0.136 1.894,-0.21 0.99,-8.685 1.978,-17.371 2.968,-26.055 -0.697,-0.014 -1.392,-0.021 -2.083,-0.023 1.443,-16.351 2.398,-32.51 3.28,-48.641 2.169,-0.379 4.336,-0.759 6.505,-1.138 5.743,36.588 9.718,71.99 8.832,109.618 5.953,2.22 14.006,2.695 19.892,-4.003 1.902,-15.825 3.582,-31.786 5.089,-47.814 0.821,-0.035 1.646,-0.079 2.472,-0.129 0.912,-8.137 1.826,-16.274 2.738,-24.411 -1.012,-0.084 -2.017,-0.153 -3.015,-0.206 1.307,-15.674 2.474,-31.38 3.544,-47.05 1.574,-0.15 3.145,-0.303 4.716,-0.46 2.412,-13.779 3.32,-27.076 3.25,-40.061 -1.793,-0.046 -3.584,-0.09 -5.376,-0.131 l 0.058,-0.969 0.063,-1.058 0.064,-1.057 0.015,-0.279 0.047,-0.778 0.063,-1.056 0.062,-1.059 0.035,-0.573 0.027,-0.483 0.062,-1.055 0.062,-1.055 0.051,-0.869 0.011,-0.188 0.062,-1.054 0.06,-1.056 0.063,-1.055 0.007,-0.105 0.054,-0.946 0.061,-1.055 0.061,-1.054 0.024,-0.4 0.035,-0.653 0.062,-1.052 0.059,-1.053 0.041,-0.691 0.021,-0.361 0.059,-1.052 0.061,-1.051 0.057,-0.984 0.003,-0.067 0.061,-1.049 0.058,-1.052 0.059,-1.048 0.014,-0.226 0.047,-0.824 0.058,-1.049 0.061,-1.049 0.028,-0.517 0.031,-0.53 0.059,-1.05 0.06,-1.046 0.045,-0.808 0.012,-0.238 0.06,-1.048 0.058,-1.046 0.06,-1.044 0.003,-0.051 0.054,-0.996 0.058,-1.042 0.06,-1.044 0.018,-0.345 0.039,-0.7 0.059,-1.043 0.059,-1.044 0.036,-0.633 0.021,-0.409 0.059,-1.043 0.057,-1.04 0.052,-0.923 0.008,-0.118 0.057,-1.041 0.057,-1.041 0.059,-1.038 0.009,-0.172 0.048,-0.867 0.058,-1.039 0.059,-1.038 0.026,-0.461 0.031,-0.577 0.058,-1.038 0.057,-1.034 0.042,-0.75 0.015,-0.289 0.059,-1.035 0.058,-1.034 0.057,-1.034 -0.059,-1.174 -0.004,-0.071 -0.058,-1.104 -0.007,-0.138 -0.008,-0.123 -0.053,-0.908 -0.01,-0.211 v -0.006 c -0.05,-0.818 -0.1,-1.631 -0.154,-2.446 l -0.002,-0.022 -0.015,-0.233 -0.066,-0.977 -0.002,-0.024 -0.011,-0.162 -0.076,-1.069 -0.005,-0.09 -0.086,-1.138 -0.002,-0.024 -0.09,-1.157 -0.003,-0.047 -0.077,-0.949 -0.014,-0.159 -0.01,-0.116 -0.014,-0.185 -0.074,-0.853 -0.015,-0.183 -0.01,-0.105 -0.074,-0.862 -0.024,-0.255 -0.003,-0.04 -0.078,-0.855 -0.031,-0.323 -0.022,-0.252 -0.055,-0.571 -0.038,-0.394 -0.118,-1.213 -0.013,-0.111 -0.111,-1.099 -0.005,-0.042 -0.119,-1.142 -0.003,-0.025 -0.059,-0.544 -0.062,-0.57 -0.01,-0.093 -0.054,-0.475 -0.063,-0.568 -0.018,-0.164 -0.048,-0.404 -0.065,-0.567 -0.027,-0.23 -0.039,-0.339 c -0.078,-0.663 -0.158,-1.326 -0.24,-1.988 l -0.008,-0.073 -0.026,-0.2 -0.07,-0.565 -0.054,-0.432 -0.018,-0.131 -0.072,-0.564 -0.063,-0.501 -0.008,-0.062 -0.075,-0.564 -0.074,-0.56 v -0.006 l -0.077,-0.557 -0.076,-0.561 -0.01,-0.071 -0.01,-0.09 -0.133,-0.96 -0.02,-0.141 -0.059,-0.419 -0.079,-0.559 -0.075,-0.513 -0.005,-0.047 -0.081,-0.559 -0.083,-0.557 -0.083,-0.558 -0.049,-0.341 -0.034,-0.217 c -1.997,-13.315 -4.666,-26.26 -7.84,-38.921 l 0.751,-7.005 c 3.462,-0.024 6.921,-0.074 10.382,-0.152 6.811,-22.469 10.414,-45.021 6.167,-67.781 8.223,-15.678 15.4,-33.381 21.807,-52.574 -48.172,-21.581 -94.03,-24.349 -138.504,-15.858 -0.668,0.127 -1.334,0.258 -2,0.391 l -0.604,0.12 c -0.641,0.129 -1.281,0.26 -1.921,0.394 l -0.682,0.142 c -0.618,0.13 -1.239,0.265 -1.857,0.399 l -0.624,0.137 c -0.662,0.146 -1.326,0.294 -1.99,0.446 l -0.519,0.118 c -0.712,0.163 -1.425,0.331 -2.135,0.5 l -0.302,0.071 c -0.736,0.175 -1.472,0.355 -2.208,0.536 l -0.333,0.082 c -0.758,0.189 -1.516,0.379 -2.274,0.575 l -0.245,0.063 c -0.778,0.198 -1.553,0.401 -2.329,0.609 l -0.172,0.044 c -0.807,0.214 -1.612,0.434 -2.418,0.656 l -0.038,0.01 -0.055,0.016 c -0.786,0.216 -1.573,0.436 -2.359,0.658 l -0.12,0.033 -0.062,0.019 C 4.18,-1.232 3.361,-0.995 2.545,-0.755 L 2.511,-0.746 C 1.675,-0.501 0.836,-0.252 0,0"
         style="fill:#2d2b2d;fill-opacity:1;fill-rule:evenodd;stroke:none"
         transform="matrix(1.3333333,0,0,-1.3333333,294.64587,690.73173)"
         clip-path="url(#clipPath3)" />
      <path
         id="path4"
         d="m 0,0 c 8.707,21.75 18.176,42.588 29.871,60.754 1.519,13.333 3.038,26.665 4.557,39.996 -11.057,21.284 -19.215,43.871 -24.301,67.842 -17.577,34.41 -39.058,60.572 -67.337,79.991 -2.218,9.878 1.914,16.238 9.675,19.547 33.552,-11.3 45.694,-19.284 66.863,-40.9 10.805,-0.588 19.896,0.83 27.12,4.422 18.951,69.588 41.454,138.684 66.376,201.703 6.606,1.932 13.549,0.28 18.252,-5.066 -10.39,-38.94 -17.178,-78.601 -21.597,-118.735 1.816,-0.633 3.629,-1.266 5.444,-1.898 21.084,44.568 41.334,89.971 56.429,140.531 8.827,2.957 15.823,0.896 21.665,-4.467 -8.281,-50.973 -21.504,-99.25 -36.357,-146.636 2.204,-0.865 4.409,-1.729 6.612,-2.592 19.308,36.704 38.605,73.416 51.262,115.56 7.873,2.596 14.412,0.775 19.152,-6.779 -6.076,-44.861 -18.359,-84.645 -31.049,-124.096 1.94,-1.011 3.88,-2.026 5.822,-3.037 18.565,32.317 35.013,64.069 47.602,99.374 6.491,0.256 14.371,-1.75 17.616,-9.779 C 255.911,294.76 232.582,222.481 210.612,153.911 199.883,129.543 186.95,107.568 172.64,87.082 167.914,69.193 163.19,51.305 158.464,33.416 c 5.534,-22.462 7.111,-48.52 6.076,-76.954 C 98.434,-50.22 45.804,-31.535 0,0"
         style="fill:#46454b;fill-opacity:1;fill-rule:evenodd;stroke:none"
         transform="matrix(1.3333333,0,0,-1.3333333,418.4492,718.79693)"
         clip-path="url(#clipPath5)" />
      <path
         id="path6"
         d="m 0,0 c 8.707,21.75 18.176,42.588 29.871,60.754 1.519,13.333 3.038,26.665 4.557,39.996 -11.057,21.284 -19.215,43.871 -24.301,67.842 8.201,-24.803 20.276,-47.024 34.747,-67.648 C 69.876,93.556 94.878,86.166 119.881,78.777 114.525,64.728 109.168,50.678 103.811,36.629 84.838,42.245 65.863,47.861 46.89,53.477 37.171,33.57 31.228,9.297 26.329,-16.192 17.288,-11.292 8.526,-5.87 0,0"
         style="fill:#39393d;fill-opacity:1;fill-rule:evenodd;stroke:none"
         transform="matrix(1.3333333,0,0,-1.3333333,418.4492,718.79693)"
         clip-path="url(#clipPath7)" />
      <path
         id="path8"
         d="m 0,0 c -6.758,-21.463 -13.585,-42.725 -20.285,-63.638 -5.061,-11.493 -10.611,-22.453 -16.565,-32.976 -42.688,11.697 -82.568,25.89 -119.881,42.365 0.672,39.86 4.715,77.144 13.749,110.606 C -95.322,37.571 -47.661,18.786 0,0"
         style="fill:#39393d;fill-opacity:1;fill-rule:evenodd;stroke:none"
         transform="matrix(1.3333333,0,0,-1.3333333,726.31253,428.73107)"
         clip-path="url(#clipPath9)" />
      <path
         id="path10"
         d="M 0,0 C 0.458,24.148 4.465,46.299 14.777,64.907 46.08,58.338 76.766,50.26 106.576,40.043 105.069,16.995 100.445,-5.15 88.186,-25.087 57.726,-20.321 28.667,-10.821 0,0"
         style="fill:#7f7e86;fill-opacity:1;fill-rule:evenodd;stroke:none"
         transform="matrix(1.3333333,0,0,-1.3333333,517.3372,669.4792)"
         clip-path="url(#clipPath11)" />
      <path
         id="path12"
         d="M 0,0 C 2.213,11.867 5.101,23.734 9.403,35.6 67.397,22.291 122.321,3.979 174.643,-18.584 172.029,-32.148 168.15,-44.802 163.447,-56.872 107.388,-40.638 52.775,-21.906 0,0"
         style="fill:#7f7e86;fill-opacity:1;fill-rule:evenodd;stroke:none"
         transform="matrix(1.3333333,0,0,-1.3333333,513.16013,361.73507)"
         clip-path="url(#clipPath13)" />
      <path
         id="path14"
         d="M 0,0 C 2.407,7.003 6.14,13.11 11.308,18.247 24.586,11.699 35.458,1.882 45.005,-9.74 40.412,-18.383 34.112,-25.055 25.637,-29.221 18.431,-17.294 10.042,-7.3 0,0"
         style="fill:#7f7e86;fill-opacity:1;fill-rule:evenodd;stroke:none"
         transform="matrix(1.3333333,0,0,-1.3333333,367.17773,412.0352)"
         clip-path="url(#clipPath15)" />
      <path
         id="path16"
         d="m 0,0 c -3.612,-7.392 -6.803,-15.195 -9.755,-23.237 7.681,-3.857 15.735,-7.336 24.626,-9.972 2.154,8.387 4.311,16.775 6.465,25.162 C 14.265,-4.855 7.145,-2.267 0,0 m -43.732,23.741 c -3.303,-7.959 -6.176,-16.264 -8.799,-24.77 7.783,-2.649 15.923,-4.863 24.861,-6.104 1.818,8.727 3.639,17.453 5.458,26.178 -7.152,2.081 -14.328,3.552 -21.52,4.696 m -57.241,11.754 c -2.829,-7.59 -5.233,-15.51 -7.389,-23.622 7.529,-2.526 15.382,-4.638 23.957,-5.821 1.38,8.321 2.76,16.643 4.143,24.965 -6.903,1.984 -13.807,3.387 -20.711,4.478 M 40.336,-33.209 c -3.358,-7.03 -6.334,-14.412 -9.092,-21.998 6.999,-3.062 14.341,-5.754 22.454,-7.618 2.031,7.854 4.063,15.708 6.095,23.562 -6.444,2.489 -12.939,4.42 -19.457,6.054"
         style="fill:#7f7e86;fill-opacity:1;fill-rule:evenodd;stroke:none"
         transform="matrix(1.3333333,0,0,-1.3333333,690.44667,241.38347)"
         clip-path="url(#clipPath17)" />
      <path
         id="path18"
         d="m 0,0 c 1.363,5.304 2.726,10.607 4.088,15.911 -4.208,1.767 -8.487,3.355 -12.812,4.813 -2.21,-4.798 -4.227,-9.69 -6.115,-14.625 C -9.993,3.807 -5.065,1.745 0,0 m -57.631,29.03 c 4.837,-1.488 9.717,-2.728 14.694,-3.638 1.175,5.637 2.35,11.275 3.525,16.912 -4.145,1.059 -8.331,1.938 -12.544,2.685 -2.068,-5.253 -3.939,-10.586 -5.675,-15.959 m -42.238,9.582 c 0.863,5.201 1.726,10.401 2.588,15.6 -3.887,0.984 -7.812,1.805 -11.761,2.507 -1.691,-4.849 -3.205,-9.764 -4.595,-14.71 4.534,-1.377 9.11,-2.535 13.768,-3.397 M 26.24,-25.621 c 4.104,-1.65 8.261,-3.104 12.518,-4.298 1.239,4.789 2.478,9.577 3.715,14.364 -3.53,1.231 -7.107,2.317 -10.715,3.299 -1.983,-4.393 -3.805,-8.86 -5.518,-13.365"
         style="fill:#9c9aa2;fill-opacity:1;fill-rule:evenodd;stroke:none"
         transform="matrix(1.3333333,0,0,-1.3333333,709.4636,277.47)"
         clip-path="url(#clipPath19)" />
      <path
         id="path20"
         d="m 0,0 c 1.641,14.366 4.963,28.131 11.082,40.902 2.239,-0.35 4.479,-0.701 6.717,-1.05 C 15.788,25.376 12.049,11.576 6.605,-1.556 4.402,-1.037 2.201,-0.518 0,0"
         style="fill:#39393d;fill-opacity:1;fill-rule:evenodd;stroke:none"
         transform="matrix(1.3333333,0,0,-1.3333333,533.1328,658.99733)"
         clip-path="url(#clipPath21)" />
      <path
         id="path22"
         d="m 0,0 c 5.751,0.252 10.411,-4.206 10.411,-9.956 0,-5.749 -4.66,-10.615 -10.411,-10.867 -5.75,-0.252 -10.41,4.205 -10.41,9.956 0,5.75 4.66,10.615 10.41,10.867"
         style="fill:#39393d;fill-opacity:1;fill-rule:evenodd;stroke:none"
         transform="matrix(1.3333333,0,0,-1.3333333,547.01307,618.68227)"
         clip-path="url(#clipPath23)" />
      <path
         id="path24"
         d="m 0,0 c 7.144,-2.741 14.206,-5.62 21.186,-8.628 -1.494,-7.764 -3.716,-15.009 -6.407,-21.917 -7.558,2.19 -15.071,4.456 -22.533,6.809 z m -78.775,2.007 c 1.265,6.793 2.918,13.586 5.381,20.378 19.71,-4.524 38.8,-10.056 57.327,-16.509 l -7.946,-24.325 c -18.594,6.235 -36.862,13.026 -54.762,20.456"
         style="fill:#9c9aa2;fill-opacity:1;fill-rule:evenodd;stroke:none"
         transform="matrix(1.3333333,0,0,-1.3333333,698.06387,375.25267)"
         clip-path="url(#clipPath25)" />
    </g>
  </g>
</svg>
